<?xml version="1.0" encoding="UTF-8"?><svg id="Layer_1" xmlns="http://www.w3.org/2000/svg" viewBox="0 0 256 256"><defs><style>.cls-1{fill:#616366;}</style></defs><path class="cls-1" d="M176,57.46c-13.68-9.32-30.2-14.79-48-14.79-47.13,0-85.33,38.21-85.33,85.33,0,21.87,8.3,41.76,21.83,56.86-9.59,5.5-20.67,8.7-32.5,8.7v19.78c17.8,0,34.32-5.46,48-14.79,13.68,9.33,30.2,14.79,48,14.79,47.13,0,85.33-38.21,85.33-85.33,0-21.87-8.3-41.76-21.83-56.86,9.59-5.5,20.67-8.7,32.5-8.7v-19.78c-17.8,0-34.32,5.47-48,14.79Zm-48,136.1c-11.83,0-22.9-3.2-32.5-8.7,13.53-15.1,21.83-34.99,21.83-56.86,0-18.28-5.8-35.18-15.59-49.07-5.88,3.16-11.09,7.37-15.47,12.34,7.12,10.48,11.28,23.13,11.28,36.72,0,17.19-6.7,32.8-17.56,44.5-10.86-11.7-17.56-27.32-17.56-44.5,0-36.15,29.41-65.56,65.56-65.56,11.83,0,22.9,3.19,32.5,8.7-13.53,15.1-21.83,34.99-21.83,56.86,0,18.24,5.77,35.11,15.52,48.98,5.88-3.17,11.1-7.35,15.48-12.33-7.08-10.47-11.22-23.08-11.22-36.65,0-17.19,6.7-32.8,17.56-44.5,10.86,11.7,17.56,27.32,17.56,44.5,0,36.15-29.41,65.56-65.56,65.56Z"/><path class="cls-1" d="M185.28,203.88c11.63,5.97,24.74,9.45,38.72,9.45v-19.78c-8.17,0-15.95-1.59-23.17-4.35-4.6,5.47-9.85,10.35-15.55,14.67Z"/><path class="cls-1" d="M70.71,52.12c-11.62-5.97-24.74-9.45-38.71-9.45v19.78c8.17,0,15.95,1.59,23.17,4.34,4.6-5.47,9.84-10.35,15.55-14.67Z"/></svg>