<?xml version="1.0" encoding="utf-8"?>
<!-- Generator: Adobe Illustrator 27.0.0, SVG Export Plug-In . SVG Version: 6.00 Build 0)  -->
<svg version="1.1" id="Layer_1" xmlns="http://www.w3.org/2000/svg" xmlns:xlink="http://www.w3.org/1999/xlink" x="0px" y="0px"
	 viewBox="0 0 1047.5 142.9" style="enable-background:new 0 0 1047.5 142.9;" xml:space="preserve">
<style type="text/css">
	.st0{fill:#929499;}
	.st1{fill:#616366;}
</style>
<g>
	<g>
		<path class="st0" d="M217.2,81.8c0-10-5.9-14.4-19.1-19.6l-5.9-2.4c-15.9-6.3-26.7-15.3-26.7-31.2c0-17.8,15-28.7,34.9-28.7
			c10.4,0,18.7,3.2,25.5,8.2l-0.9,20.2h-9.6L210.9,5l10,5.1v7.7c-7.6-7.3-13.4-10-21.5-10c-11.9,0-20.9,6-20.9,17.4
			c0,9.7,6.3,15.3,17.4,19.6l6.1,2.4c20.4,7.9,28.3,16.9,28.3,31.5c0,18.3-15.2,29.5-36.7,29.5c-11.6,0-23-3.7-30.2-8.2l0.9-21.7
			h9.6l4,23.9l-10.2-4.3v-7.4c9.6,6.9,14.9,9.9,25.4,9.9C207.7,100.4,217.2,93.7,217.2,81.8z"/>
		<path class="st0" d="M266.1,99.9c3.4,0,6.4-1.4,10.4-4.3l3.6,4.2c-3.9,5.1-10.3,8.1-18.2,8.1c-10.9,0-17.6-5.6-17.6-17.7
			c0-3.8,0.2-7.1,0.2-13.1V40.7h-12.8v-6.8l19.1-2.5l-6.3,5.2l4.9-25.2h9.4l-1.2,27.1v50C257.5,96.5,260.9,99.9,266.1,99.9z
			 M278.6,32.5v8.2H251v-8.2H278.6z"/>
		<path class="st0" d="M297.1,73.4V66c0-8.5-0.2-13.2-0.5-19.4l-12.2-1.4v-5.5l21.6-9.3l2.3,1.6l1.8,19.3v22.1
			c0,9.6,0.2,25.5,0.5,32.5h-14C297,98.9,297.1,83,297.1,73.4z M285.7,100.4l16.9-3.1h3.8l16.9,3.1v5.5h-37.6V100.4z M303.7,52.6h9
			l-3.8,1.3c4.8-14.7,14.3-23.4,23.5-23.4c4.6,0,9.3,2.3,11.1,5.6c0,7.3-2.9,11.4-9.1,11.4c-3.6,0-6.6-1.4-9.4-3.9l-4.2-3.7l7.5-1.3
			c-9.4,4.9-14.9,12.7-18.4,24.4l-6.2-0.1V52.6z"/>
		<path class="st0" d="M372.8,65.2c6.5-2.3,16.3-5.1,24-6.5v5.6c-7,1.4-16.1,4.3-20.7,6.2c-13.5,5.3-15.3,11.1-15.3,15.8
			c0,8.2,5.3,11.4,12.3,11.4c5.3,0,8.3-2,17.8-8.7l3.3-2.5l2.1,3.2l-4.6,4.6c-9.2,9.2-14.4,13.6-24,13.6c-11.3,0-20.7-6.5-20.7-19.4
			C347.2,79.8,351.9,72.8,372.8,65.2z M390.3,91.8V56.3c0-15.1-4.2-18.8-14.4-18.8c-3.6,0-8.2,0.5-14,2.8l6.4-4.9l-3.9,13.2
			c-1.3,4.8-3.8,7.4-8.1,7.4c-4.3,0-6.8-2.3-7.2-6.3c2.8-11.8,14.3-19.2,30.2-19.2c16.2,0,23.9,7.3,23.9,26.9v32.9
			c0,6.7,2.1,9.2,5.6,9.2c2.6,0,4.2-1.4,6-3.4l3.2,3.4c-3.7,6-8,8.1-13.5,8.1C396,107.5,390.4,101.3,390.3,91.8z"/>
		<path class="st0" d="M448.7,99.9c3.4,0,6.4-1.4,10.4-4.3l3.6,4.2c-3.9,5.1-10.3,8.1-18.2,8.1c-10.9,0-17.6-5.6-17.6-17.7
			c0-3.8,0.2-7.1,0.2-13.1V40.7h-12.8v-6.8l19.1-2.5l-6.3,5.2l4.9-25.2h9.4l-1.2,27.1v50C440.1,96.5,443.5,99.9,448.7,99.9z
			 M461.2,32.5v8.2h-27.6v-8.2H461.2z"/>
		<path class="st0" d="M490,78.6c0,13.5,4,18.2,12.3,18.2c7.8,0,15.8-4,23.4-11.7h3.4v8h-8l5.4-2.4c-8.7,12-19.2,17.2-29.5,17.2
			c-12.4,0-20.2-7.4-20.1-27.9l0.5-40.9l3.3,3.1l-14.4-3.1v-5.5l22.8-2.2l1.6,1.6L490,54.8V78.6z M526,107.2l-2.1-18.1l0.5-49.9
			l3.3,3.1l-14.3-3.1v-5.4l22.5-2.2l1.6,1.6L537,54.8v46.6l-4.1-4.1l14.6,3.1v5.5L526,107.2z"/>
		<path class="st0" d="M555.9,102l-0.6-17h8.4l4.1,18.4l-7.6-3.5v-5.3c5.5,4.2,11.3,6.3,19.1,6.3c11.7,0,17.3-4.7,17.3-11.8
			c0-6.6-4.5-9.9-14.3-13.5l-7.2-2.6c-11.3-4.1-18.7-10.3-18.7-20.9c0-11.3,9.6-21.7,26.9-21.7c8.4,0,14.9,2.3,21.7,6.3l-0.6,15.7
			h-8l-3.2-15.8l5.7,2.5v4.1c-5-3.8-10.1-5.8-15.8-5.8c-9.4,0-14.4,4.1-14.4,10.6c0,6.8,3.8,9.5,14.3,13.3l4.8,1.7
			c15.4,5.6,21.3,13,21.3,22.7c0,11.7-10.2,22.2-30.2,22.2C570.3,107.9,563.6,105.9,555.9,102z"/>
		<path class="st0" d="M740.1,99.1c-10.7,5.6-21.2,9.1-34.1,9.1c-31,0-52.1-22.9-52.1-54.1c0-31.2,21.1-54.1,52.8-54.1
			c12.7,0,22.4,2.3,31,7.4l0.6,22.5h-9.6l-4-23l9.7,3v8.8c-8.3-7.6-16.7-11-26.4-11c-21.4,0-37.2,16.7-37.2,46.3
			c0,29.5,14.5,46.2,38.2,46.2c8.7,0,15.1-2,23.8-6.3l-7.2,7.4v-9.1c0-11.8-0.2-23.9-0.5-35.7h15.5c-0.3,11.6-0.5,23.6-0.5,35.7
			V99.1z M709.2,63v-6.3h40.6V63l-17.1,1.6h-3.5L709.2,63z"/>
		<path class="st0" d="M764.4,73.4V66c0-8.5-0.2-13.2-0.5-19.4l-12.2-1.4v-5.5l21.6-9.3l2.3,1.6l1.8,19.3v22.1
			c0,9.6,0.2,25.5,0.5,32.5h-14C764.2,98.9,764.4,83,764.4,73.4z M753,100.4l16.9-3.1h3.8l16.9,3.1v5.5H753V100.4z M771,52.6h9
			l-3.8,1.3c4.8-14.7,14.3-23.4,23.5-23.4c4.6,0,9.3,2.3,11.1,5.6c0,7.3-2.9,11.4-9.1,11.4c-3.6,0-6.6-1.4-9.4-3.9l-4.2-3.7l7.5-1.3
			c-9.4,4.9-14.9,12.7-18.4,24.4l-6.2-0.1V52.6z"/>
		<path class="st0" d="M812.7,69.5c0-25.6,17.5-39,35.5-39c17.7,0,35.5,13.4,35.5,39s-17.7,38.5-35.5,38.5
			C830,107.9,812.7,95,812.7,69.5z M869.1,69.5c0-20.8-7.7-32-20.9-32c-13.5,0-20.9,11.2-20.9,32c0,20.8,7.4,31.4,20.9,31.4
			C861.4,100.9,869.1,90.3,869.1,69.5z"/>
		<path class="st0" d="M910.7,78.6c0,13.5,4,18.2,12.3,18.2c7.8,0,15.8-4,23.4-11.7h3.4v8h-8l5.4-2.4c-8.7,12-19.2,17.2-29.5,17.2
			c-12.4,0-20.2-7.4-20.1-27.9l0.5-40.9l3.3,3.1L887,39.2v-5.5l22.8-2.2l1.6,1.6l-0.8,21.7V78.6z M946.7,107.2l-2.1-18.1l0.5-49.9
			l3.3,3.1l-14.3-3.1v-5.4l22.5-2.2l1.6,1.6l-0.5,21.7v46.6l-4.1-4.1l14.6,3.1v5.5L946.7,107.2z"/>
		<path class="st0" d="M1009.5,137.4v5.5h-39.8v-5.5l17.3-3.1h3.8L1009.5,137.4z M982.5,66c0-8.5-0.2-13.2-0.5-19.4l-12.2-1.4v-5.5
			l21.6-9.3l2.3,1.5l1.2,13.1l0.6,0.4v48.3l-0.5,1V110c0,10.8,0.2,21.9,0.5,32.9H982c0.3-11,0.5-21.8,0.5-32.6V66z M1014.2,39.2
			c-5.9,0-13.6,3.1-24.5,13.8l-1.4-2.8c9-13.8,19-19.8,29.7-19.8c16.4,0,29.5,14.5,29.5,38.4c0,23.9-13.7,39.1-31.8,39.1
			c-9.7,0-19.2-4.5-27.3-20.6l1.4-2.5c8,10.1,15.2,14.3,22.8,14.3c11.6,0,21-9.1,21-28.9S1025.6,39.2,1014.2,39.2z"/>
	</g>
	<g>
		<path class="st1" d="M91.3,9.4C82.7,3.5,72.2,0,60.9,0C31,0,6.8,24.2,6.8,54.1C6.8,68,12,80.6,20.6,90.2
			C14.5,93.7,7.5,95.7,0,95.7v12.5c11.3,0,21.8-3.5,30.4-9.4c8.7,5.9,19.2,9.4,30.4,9.4c29.9,0,54.1-24.2,54.1-54.1
			c0-13.9-5.3-26.5-13.8-36.1c6.1-3.5,13.1-5.5,20.6-5.5V0C110.5,0,100,3.5,91.3,9.4z M60.9,95.7c-7.5,0-14.5-2-20.6-5.5
			c8.6-9.6,13.8-22.2,13.8-36.1c0-11.6-3.7-22.3-9.9-31.1c-3.7,2-7,4.7-9.8,7.8c4.5,6.7,7.2,14.7,7.2,23.3
			c0,10.9-4.2,20.8-11.1,28.2C23.6,74.9,19.3,65,19.3,54.1c0-22.9,18.7-41.6,41.6-41.6c7.5,0,14.5,2,20.6,5.5
			c-8.6,9.6-13.8,22.2-13.8,36.1c0,11.6,3.7,22.3,9.8,31.1c3.7-2,7-4.7,9.8-7.8c-4.5-6.6-7.1-14.6-7.1-23.2
			c0-10.9,4.2-20.8,11.1-28.2c6.9,7.4,11.1,17.3,11.1,28.2C102.5,77.1,83.8,95.7,60.9,95.7z"/>
		<path class="st1" d="M97.2,102.3c7.4,3.8,15.7,6,24.6,6V95.7c-5.2,0-10.1-1-14.7-2.8C104.2,96.4,100.9,99.5,97.2,102.3z"/>
		<path class="st1" d="M24.6,6C17.2,2.2,8.9,0,0,0v12.5c5.2,0,10.1,1,14.7,2.8C17.6,11.8,20.9,8.7,24.6,6z"/>
	</g>
</g>
</svg>
