<?xml version="1.0" encoding="UTF-8"?><svg id="Layer_1" xmlns="http://www.w3.org/2000/svg" viewBox="0 0 1280 142.93"><defs><style>.cls-1{fill:#929499;}.cls-2{fill:#616366;}</style></defs><g><path class="cls-1" d="M217.23,81.8c0-9.95-5.92-14.39-19.15-19.59l-5.92-2.36c-15.92-6.31-26.73-15.3-26.73-31.16,0-17.84,15.01-28.7,34.88-28.7,10.41,0,18.75,3.23,25.45,8.18l-.95,20.2h-9.56l-4.3-23.36,10.05,5.07v7.74c-7.62-7.34-13.35-10.01-21.54-10.01-11.88,0-20.9,6.01-20.9,17.44,0,9.66,6.26,15.3,17.44,19.62l6.1,2.38c20.39,7.95,28.29,16.9,28.29,31.51,0,18.26-15.24,29.5-36.74,29.5-11.6,0-23-3.65-30.22-8.19l.93-21.74h9.58l4.02,23.9-10.17-4.3v-7.43c9.61,6.87,14.93,9.94,25.42,9.94,14.49,0,24.02-6.78,24.02-18.64Z"/><path class="cls-1" d="M266.15,99.92c3.37,0,6.44-1.38,10.4-4.28l3.57,4.15c-3.88,5.12-10.28,8.15-18.22,8.15-10.87,0-17.61-5.61-17.61-17.71,0-3.81,.15-7.11,.15-13.14V40.68h-12.83v-6.8l19.14-2.47-6.34,5.17,4.93-25.17h9.36l-1.19,27.12v50c0,8,3.4,11.4,8.62,11.4Zm12.44-67.44v8.19h-27.59v-8.19h27.59Z"/><path class="cls-1" d="M297.12,73.42v-7.38c0-8.51-.15-13.21-.46-19.4l-12.21-1.39v-5.45l21.58-9.34,2.34,1.55,1.83,19.32v22.09c0,9.59,.15,25.53,.46,32.49h-14.01c.31-6.96,.46-22.9,.46-32.49Zm-11.44,26.98l16.89-3.09h3.85l16.89,3.09v5.52h-37.63v-5.52Zm18.03-47.84h8.98l-3.77,1.26c4.82-14.65,14.34-23.36,23.47-23.36,4.61,0,9.3,2.25,11.13,5.61-.02,7.32-2.9,11.37-9.09,11.37-3.62,0-6.6-1.44-9.44-3.91l-4.2-3.69,7.5-1.33c-9.36,4.9-14.93,12.66-18.4,24.42l-6.19-.06v-10.31Z"/><path class="cls-1" d="M372.85,65.22c6.49-2.3,16.31-5.09,24.02-6.5v5.62c-6.98,1.42-16.07,4.32-20.7,6.19-13.53,5.27-15.25,11.12-15.25,15.76,0,8.17,5.34,11.44,12.35,11.44,5.28,0,8.33-1.97,17.81-8.74l3.27-2.46,2.13,3.19-4.6,4.63c-9.18,9.21-14.42,13.56-23.96,13.56-11.33,0-20.71-6.53-20.71-19.37,0-8.8,4.72-15.81,25.64-23.35Zm17.45,26.54V56.29c0-15.08-4.24-18.81-14.43-18.81-3.57,0-8.18,.46-13.96,2.75l6.44-4.87-3.86,13.16c-1.34,4.82-3.81,7.39-8.09,7.39s-6.8-2.34-7.16-6.28c2.82-11.82,14.33-19.18,30.19-19.18s23.9,7.34,23.9,26.9v32.91c0,6.74,2.12,9.16,5.6,9.16,2.57,0,4.25-1.36,5.96-3.4l3.15,3.37c-3.71,6.03-7.97,8.11-13.46,8.11-8.62,0-14.21-6.15-14.28-15.73Z"/><path class="cls-1" d="M448.73,99.92c3.37,0,6.43-1.38,10.4-4.28l3.57,4.15c-3.88,5.12-10.28,8.15-18.22,8.15-10.87,0-17.61-5.61-17.61-17.71,0-3.81,.15-7.11,.15-13.14V40.68h-12.83v-6.8l19.14-2.47-6.34,5.17,4.93-25.17h9.36l-1.19,27.12v50c0,8,3.4,11.4,8.62,11.4Zm12.44-67.44v8.19h-27.59v-8.19h27.59Z"/><path class="cls-1" d="M489.98,78.64c0,13.53,3.97,18.24,12.3,18.24,7.79,0,15.8-4,23.36-11.67h3.4v8.02h-8.02l5.39-2.44c-8.74,12.02-19.25,17.15-29.46,17.15-12.43,0-20.23-7.43-20.07-27.85l.47-40.89,3.34,3.05-14.36-3.1v-5.48l22.81-2.15,1.6,1.55-.77,21.67v23.88Zm36.04,28.54l-2.12-18.11,.47-49.87,3.34,3.06-14.33-3.1v-5.45l22.47-2.18,1.6,1.55-.46,21.67v46.56l-4.09-4.05,14.62,3.14v5.52l-21.51,1.26Z"/><path class="cls-1" d="M555.94,101.99l-.56-16.99h8.44l4.14,18.4-7.65-3.53v-5.32c5.49,4.17,11.35,6.34,19.05,6.34,11.74,0,17.27-4.69,17.27-11.76,0-6.55-4.54-9.94-14.31-13.47l-7.19-2.62c-11.33-4.14-18.72-10.28-18.72-20.87,0-11.32,9.55-21.72,26.94-21.72,8.4,0,14.95,2.31,21.68,6.34l-.64,15.71h-8l-3.17-15.83,5.74,2.55v4.12c-4.98-3.85-10.14-5.83-15.78-5.83-9.44,0-14.37,4.11-14.37,10.56,0,6.81,3.78,9.46,14.31,13.29l4.81,1.73c15.43,5.65,21.31,12.96,21.31,22.67,0,11.73-10.24,22.19-30.16,22.19-8.75,0-15.52-2.03-23.13-5.95Z"/><path class="cls-1" d="M740.13,99.14c-10.68,5.6-21.2,9.12-34.1,9.12-31,0-52.08-22.89-52.08-54.14S675.1,0,706.72,0c12.69,0,22.35,2.32,31.04,7.41l.62,22.53h-9.59l-3.96-23,9.66,3.04v8.78c-8.31-7.64-16.71-10.97-26.43-10.97-21.38,0-37.22,16.7-37.22,46.32s14.49,46.2,38.23,46.2c8.69,0,15.06-2,23.76-6.29l-7.24,7.42v-9.13c0-11.8-.15-23.85-.46-35.66h15.47c-.31,11.65-.46,23.58-.46,35.7v6.79Zm-30.96-36.18v-6.31h40.62v6.31l-17.08,1.6h-3.49l-20.05-1.6Z"/><path class="cls-1" d="M764.4,73.42v-7.38c0-8.51-.15-13.21-.46-19.4l-12.21-1.39v-5.45l21.58-9.34,2.34,1.55,1.83,19.32v22.09c0,9.59,.15,25.53,.46,32.49h-14.01c.31-6.96,.46-22.9,.46-32.49Zm-11.44,26.98l16.89-3.09h3.85l16.89,3.09v5.52h-37.63v-5.52Zm18.03-47.84h8.98l-3.77,1.26c4.82-14.65,14.34-23.36,23.47-23.36,4.61,0,9.3,2.25,11.13,5.61-.02,7.32-2.9,11.37-9.09,11.37-3.62,0-6.6-1.44-9.44-3.91l-4.2-3.69,7.5-1.33c-9.36,4.9-14.93,12.66-18.4,24.42l-6.19-.06v-10.31Z"/><path class="cls-1" d="M812.67,69.47c0-25.58,17.47-39.02,35.51-39.02s35.51,13.42,35.51,39.02-17.65,38.47-35.51,38.47-35.51-12.89-35.51-38.47Zm56.39,.02c0-20.8-7.69-32.01-20.88-32.01s-20.88,11.21-20.88,32.01,7.4,31.42,20.88,31.42,20.88-10.61,20.88-31.42Z"/><path class="cls-1" d="M910.67,78.64c0,13.53,3.97,18.24,12.3,18.24,7.79,0,15.8-4,23.36-11.67h3.4v8.02h-8.02l5.39-2.44c-8.74,12.02-19.25,17.15-29.46,17.15-12.43,0-20.23-7.43-20.07-27.85l.47-40.89,3.34,3.05-14.36-3.1v-5.48l22.81-2.15,1.6,1.55-.77,21.67v23.88Zm36.04,28.54l-2.12-18.11,.47-49.87,3.34,3.06-14.33-3.1v-5.45l22.47-2.18,1.6,1.55-.46,21.67v46.56l-4.09-4.05,14.62,3.14v5.52l-21.51,1.26Z"/><path class="cls-1" d="M1009.52,137.41v5.52h-39.82v-5.52l17.33-3.09h3.78l18.71,3.09Zm-27.06-71.36c0-8.51-.15-13.22-.46-19.41l-12.21-1.39v-5.45l21.57-9.34,2.33,1.54,1.23,13.09,.62,.42v48.3l-.46,.99v15.22c0,10.77,.15,21.92,.46,32.92h-13.54c.31-11,.46-21.85,.46-32.62v-44.26Zm31.78-26.8c-5.87,0-13.56,3.12-24.5,13.77l-1.39-2.77c8.97-13.79,19.04-19.79,29.74-19.79,16.43,0,29.45,14.49,29.45,38.43s-13.73,39.06-31.8,39.06c-9.69,0-19.2-4.54-27.33-20.62l1.39-2.49c7.95,10.12,15.21,14.35,22.8,14.35,11.61,0,21.03-9.08,21.03-28.95s-8.09-30.98-19.4-30.98Z"/><path class="cls-1" d="M1086.76,99.6l15.5-2.32h3.07l16.89,2.32v6.31h-35.46v-6.31ZM1132.75,1.61h9.67l35.54,104.3h-15.08l-30.83-92.14,3.69-.45-31.45,92.58h-7.38L1132.75,1.61Zm-18.02,63.43h41.78l2.53,7.22h-46.79l2.48-7.22Zm30.23,34.57l19.38-2.32h3.51l19.22,2.32v6.29h-42.11v-6.29Z"/><path class="cls-1" d="M1270.33,99.14c-10.68,5.6-21.2,9.12-34.1,9.12-31,0-52.08-22.89-52.08-54.14S1205.3,0,1236.93,0c12.69,0,22.35,2.32,31.04,7.41l.62,22.53h-9.59l-3.96-23,9.66,3.04v8.78c-8.31-7.64-16.71-10.97-26.43-10.97-21.38,0-37.22,16.7-37.22,46.32s14.49,46.2,38.23,46.2c8.69,0,15.06-2,23.76-6.29l-7.24,7.42v-9.13c0-11.8-.15-23.85-.46-35.66h15.47c-.31,11.65-.46,23.58-.46,35.7v6.79Zm-30.96-36.18v-6.31h40.62v6.31l-17.08,1.6h-3.49l-20.05-1.6Z"/></g><g><path class="cls-2" d="M91.34,9.38C82.67,3.47,72.19,0,60.9,0,31,0,6.77,24.23,6.77,54.13c0,13.87,5.26,26.49,13.85,36.07-6.08,3.49-13.11,5.52-20.61,5.52v12.54c11.29,0,21.77-3.47,30.45-9.38,8.68,5.92,19.16,9.38,30.45,9.38,29.89,0,54.13-24.23,54.13-54.13,0-13.87-5.26-26.49-13.85-36.07,6.08-3.49,13.11-5.52,20.61-5.52V0C110.5,0,100.02,3.47,91.34,9.38Zm-30.45,86.33c-7.5,0-14.53-2.03-20.61-5.52,8.58-9.58,13.85-22.19,13.85-36.07,0-11.6-3.68-22.32-9.89-31.12-3.73,2-7.04,4.68-9.82,7.83,4.51,6.65,7.16,14.67,7.16,23.3,0,10.9-4.25,20.81-11.14,28.23-6.89-7.42-11.14-17.33-11.14-28.23,0-22.93,18.66-41.58,41.59-41.58,7.5,0,14.53,2.03,20.61,5.52-8.58,9.58-13.85,22.19-13.85,36.07,0,11.57,3.66,22.27,9.84,31.07,3.73-2.01,7.04-4.66,9.82-7.82-4.49-6.64-7.12-14.64-7.12-23.25,0-10.9,4.25-20.81,11.14-28.23,6.89,7.42,11.14,17.33,11.14,28.23,0,22.93-18.66,41.59-41.58,41.59Z"/><path class="cls-2" d="M97.23,102.26c7.37,3.79,15.69,6,24.56,6v-12.54c-5.18,0-10.12-1.01-14.7-2.76-2.92,3.47-6.25,6.57-9.86,9.31Z"/><path class="cls-2" d="M24.56,6C17.18,2.21,8.87,0,0,0V12.54c5.18,0,10.12,1.01,14.69,2.76,2.92-3.47,6.24-6.57,9.86-9.31Z"/></g></svg>