<?xml version="1.0" encoding="UTF-8"?><svg id="Layer_1" xmlns="http://www.w3.org/2000/svg" viewBox="0 0 960 131.32"><defs><style>.cls-1{fill:#929499;}.cls-2{fill:#616366;}</style></defs><g><path class="cls-1" d="M185.68,43.42l-5.61-2.19c-10.27-3.97-16.02-9.15-16.02-18.03,0-10.5,8.28-16.02,19.2-16.02,4.35,0,7.94,.86,11.55,2.85l2.95,16.05h8.79l.87-18.56c-6.16-4.55-13.82-7.52-23.38-7.52-18.25,0-32.04,9.98-32.04,26.37,0,14.57,9.94,22.83,24.56,28.63l5.44,2.17c12.15,4.77,17.59,8.86,17.59,18,0,10.9-8.76,17.13-22.07,17.13-6.15,0-10.37-1.16-14.9-3.63l-2.81-16.69h-8.8l-.85,19.97c6.63,4.18,17.11,7.53,27.77,7.53,19.75,0,33.75-10.33,33.75-27.1,0-13.42-7.26-21.64-25.99-28.95Z"/><path class="cls-1" d="M244.63,91.81c-4.8,0-7.92-3.12-7.92-10.47V37.37h19.35v-7.53h-19.11l.85-19.37h-8.6l-3.73,19.03-12.56,1.62v6.25h11.78v33.45c0,5.54-.14,8.58-.14,12.08,0,11.12,6.19,16.27,16.18,16.27,7.3,0,13.17-2.78,16.74-7.48l-3.28-3.82c-3.64,2.67-6.46,3.93-9.56,3.93Z"/><path class="cls-1" d="M305.34,27.98c-7.76,0-15.78,6.91-20.45,18.58l-1.63-17.16-2.15-1.43-19.83,8.58v5.01l11.22,1.28c.29,5.69,.43,10,.43,17.82v6.78c0,6.37-.08,15.75-.22,22.9l-10.29,1.88v5.07h34.58v-5.07l-11.83-2.17c-.14-7.11-.22-16.33-.22-22.62v-10.46c2.54-8.19,6.27-14.2,11.87-18.53l1.73,1.52c2.61,2.27,5.34,3.59,8.67,3.59,5.69,0,8.33-3.73,8.35-10.45-1.68-3.08-5.98-5.16-10.22-5.16Z"/><path class="cls-1" d="M375.66,91.35c-3.2,0-5.14-2.22-5.14-8.41v-30.24c0-17.98-7.12-24.72-21.96-24.72s-25.15,6.76-27.74,17.62c.33,3.62,2.67,5.77,6.58,5.77s6.2-2.36,7.43-6.79l2.7-9.2c3-.72,5.6-.95,7.75-.95,9.36,0,13.26,3.43,13.26,17.29v3.53c-5.68,1.36-11.67,3.14-16.03,4.68-19.21,6.93-23.55,13.37-23.55,21.45,0,11.79,8.61,17.79,19.03,17.79,8.36,0,13.16-3.69,20.91-11.37,1.24,6.77,5.97,10.97,12.78,10.97,5.05,0,8.96-1.91,12.37-7.45l-2.9-3.09c-1.57,1.88-3.11,3.13-5.47,3.13Zm-44.12-12.06c0-4.27,1.58-9.64,14.01-14.48,3-1.21,8.03-2.88,12.98-4.23v21.7c-8.12,5.79-10.95,7.52-15.65,7.52-6.44,0-11.35-3-11.35-10.51Z"/><path class="cls-1" d="M412.31,91.81c-4.8,0-7.92-3.12-7.92-10.47V37.37h19.35v-7.53h-19.11l.85-19.37h-8.6l-3.73,19.03-12.56,1.62v6.25h11.78v33.45c0,5.54-.14,8.58-.14,12.08,0,11.12,6.19,16.27,16.18,16.27,7.3,0,13.17-2.78,16.74-7.48l-3.28-3.82c-3.64,2.67-6.46,3.93-9.56,3.93Z"/><path class="cls-1" d="M493.22,50.3l.43-19.91-1.47-1.43-20.65,2.01v5.01l10.08,2.18-.39,41.63c-6.48,6.04-13.27,9.23-19.89,9.23-7.65,0-11.3-4.32-11.3-16.75v-21.95l.71-19.91-1.47-1.43-20.96,1.98v5.03l10.09,2.18-.41,35.43c-.15,18.77,7.02,25.59,18.44,25.59,8.68,0,17.57-4.1,25.21-13.45l1.49,12.74,19.76-1.16v-5.07l-9.67-2.08V50.3Z"/><path class="cls-1" d="M540.01,57.96l-4.42-1.59c-9.67-3.52-13.15-5.95-13.15-12.21,0-5.92,4.53-9.7,13.21-9.7,3.47,0,6.72,.89,9.88,2.48l2.26,11.29h7.35l.59-14.43c-6.18-3.7-12.2-5.82-19.92-5.82-15.97,0-24.75,9.56-24.75,19.96,0,9.73,6.79,15.37,17.2,19.17l6.6,2.41c8.98,3.24,13.15,6.36,13.15,12.38,0,6.49-5.08,10.8-15.87,10.8-4.41,0-8.11-.86-11.53-2.37l-2.75-12.23h-7.76l.52,15.61c7,3.6,13.21,5.46,21.25,5.46,18.3,0,27.71-9.61,27.71-20.38,0-8.91-5.4-15.64-19.58-20.83Z"/><path class="cls-1" d="M663.22,52.05h-14.66v5.8l14.8,1.18c.18,8.6,.29,17.25,.29,25.79v4.48c-4.99,1.91-9.57,2.88-15.18,2.88-21.81,0-35.13-15.37-35.13-42.45s14.56-42.56,34.2-42.56c5.84,0,11.15,1.34,16.27,4.21l2.78,16.14h8.81l-.57-20.7c-7.98-4.67-16.86-6.81-28.52-6.81-29.05,0-48.48,21.07-48.48,49.72s19.37,49.75,47.85,49.75c11.85,0,21.51-3.23,31.33-8.38v-6.24c0-8.87,.12-17.59,.3-26.2l8.58-.8v-5.8h-22.66Z"/><path class="cls-1" d="M731.79,27.98c-7.76,0-15.78,6.91-20.45,18.58l-1.63-17.16-2.15-1.43-19.83,8.58v5.01l11.22,1.28c.29,5.69,.43,10,.43,17.82v6.78c0,6.37-.08,15.75-.22,22.9l-10.29,1.88v5.07h34.58v-5.07l-11.83-2.17c-.14-7.11-.22-16.33-.22-22.62v-10.46c2.54-8.19,6.27-14.2,11.87-18.53l1.73,1.52c2.61,2.27,5.34,3.59,8.67,3.59,5.69,0,8.33-3.73,8.35-10.45-1.68-3.08-5.98-5.16-10.22-5.16Z"/><path class="cls-1" d="M776.45,27.98c-16.58,0-32.62,12.35-32.62,35.85s15.94,35.34,32.62,35.34,32.63-11.83,32.63-35.34-16.32-35.85-32.63-35.85Zm0,64.74c-12.39,0-19.19-9.75-19.19-28.87s6.8-29.41,19.19-29.41,19.19,10.3,19.19,29.41-7.07,28.87-19.19,28.87Z"/><path class="cls-1" d="M877.2,50.3l.43-19.91-1.47-1.43-20.65,2.01v5.01l10.08,2.18-.39,41.63c-6.48,6.04-13.27,9.23-19.89,9.23-7.65,0-11.3-4.32-11.3-16.75v-21.95l.71-19.91-1.47-1.43-20.96,1.98v5.03l10.09,2.18-.41,35.43c-.15,18.77,7.02,25.59,18.44,25.59,8.68,0,17.57-4.1,25.21-13.45l1.49,12.74,19.76-1.16v-5.07l-9.67-2.08V50.3Z"/><path class="cls-1" d="M932.94,27.98c-7.6,0-14.84,3.34-21.55,10.68l-.87-9.27-2.14-1.41-19.82,8.58v5.01l11.22,1.28c.29,5.69,.43,10.01,.43,17.83v40.67c0,7.55-.16,15.2-.33,22.86l-11.4,2.04v5.08h36.59v-5.08l-13-2.15c-.17-7.73-.27-15.47-.27-23.02v-11.31c5.94,7.12,12.42,9.4,18.99,9.4,16.6,0,29.21-13.93,29.21-35.88s-11.97-35.31-27.06-35.31Zm-5.04,63.13c-5.26,0-10.36-2.22-15.68-7.31V43.97c7.29-5.95,12.8-7.91,17.18-7.91,10.4,0,17.83,10.21,17.83,28.46s-8.66,26.6-19.33,26.6Z"/></g><g><path class="cls-2" d="M83.93,8.62C75.96,3.19,66.33,0,55.95,0,28.48,0,6.22,22.27,6.22,49.73c0,12.75,4.84,24.34,12.72,33.14-5.59,3.21-12.05,5.07-18.94,5.07v11.53c10.38,0,20-3.18,27.98-8.62,7.97,5.43,17.6,8.62,27.98,8.62,27.47,0,49.73-22.27,49.73-49.73,0-12.75-4.84-24.34-12.72-33.14,5.59-3.21,12.05-5.07,18.94-5.07V0C101.53,0,91.9,3.19,83.93,8.62Zm-27.98,79.32c-6.89,0-13.35-1.86-18.94-5.07,7.89-8.8,12.72-20.39,12.72-33.14,0-10.65-3.38-20.5-9.08-28.6-3.43,1.84-6.47,4.3-9.02,7.19,4.15,6.11,6.58,13.48,6.58,21.4,0,10.02-3.9,19.12-10.23,25.94-6.33-6.82-10.23-15.92-10.23-25.94,0-21.07,17.14-38.21,38.21-38.21,6.89,0,13.35,1.86,18.94,5.07-7.89,8.8-12.72,20.39-12.72,33.14,0,10.63,3.36,20.46,9.05,28.54,3.43-1.85,6.47-4.28,9.02-7.19-4.13-6.1-6.54-13.45-6.54-21.36,0-10.02,3.9-19.12,10.23-25.94,6.33,6.82,10.23,15.92,10.23,25.94,0,21.07-17.14,38.21-38.21,38.21Z"/><path class="cls-2" d="M89.34,93.96c6.78,3.48,14.42,5.51,22.56,5.51v-11.53c-4.76,0-9.3-.93-13.5-2.53-2.68,3.19-5.74,6.03-9.06,8.55Z"/><path class="cls-2" d="M22.56,5.51C15.79,2.03,8.15,0,0,0V11.53c4.76,0,9.3,.93,13.5,2.53,2.68-3.19,5.74-6.03,9.06-8.55Z"/></g></svg>